<?xml version="1.0" encoding="utf-8"?>
<svg viewBox="0 0 500 500" xmlns="http://www.w3.org/2000/svg">
  <g id="SvgjsG1237" featurekey="HKaMnE-0" transform="matrix(0.14467599987983704, 0, 0, 0.14467599987983704, 280.25555419921875, 144.23968505859375)" fill="#ffe239">
    <path xmlns="http://www.w3.org/2000/svg" fill-rule="evenodd" clip-rule="evenodd" d="M 1293.544 1070.638 L -986.246 2273.242 C -1007.103 2287.645 -1033.133 2296.62 -1061.782 2296.62 C -1129.343 2296.62 -1184.043 2248.819 -1184.043 2189.732 C -1184.043 2149.337 -1157.838 2114.58 -1120.033 2096.362 L 1166.891 880.656 C 1179.241 873.717 1191.418 865.836 1202.396 856.234 C 1279.983 788.383 1279.983 678.363 1202.396 610.545 C 1190.339 600.001 1177.036 591.362 1162.886 583.927 L -1327.644 -739.858 C -1360.142 -754.494 -1396.725 -763.005 -1435.642 -763.005 C -1566.672 -763.005 -1673.003 -670.108 -1673.003 -555.542 L -1673.003 1748.822 C -1673.003 1807.901 -1727.701 1855.71 -1795.261 1855.71 C -1862.704 1855.71 -1917.373 1807.901 -1917.373 1748.822 L -1917.373 -560.112 C -1917.373 -790.196 -1704.123 -976.836 -1440.859 -976.836 C -1354.496 -976.836 -1273.922 -956.302 -1204.037 -921.202 L 1292.527 395.672 C 1420.13 466.732 1505.118 591.238 1505.118 733.38 C 1505.118 875.133 1420.61 999.344 1293.544 1070.638 Z M -1550.769 2229.925 C -1483.208 2229.925 -1428.539 2277.731 -1428.539 2336.811 C -1428.539 2395.789 -1483.208 2443.596 -1550.769 2443.596 C -1618.181 2443.596 -1673.003 2395.789 -1673.003 2336.811 C -1673.003 2277.731 -1618.181 2229.925 -1550.769 2229.925 Z" style=""/>
  </g>
</svg>